<!-- Generated by IcoMoon.io -->
<svg version="1.1" xmlns="http://www.w3.org/2000/svg" width="1097" height="1024" viewBox="0 0 1097 1024">
<title></title>
<g id="icomoon-ignore">
</g>
<path fill="#000" d="M338.857 512c-59.429 1.714-113.143 27.429-151.429 73.143h-76.571c-57.143 0-110.857-27.429-110.857-90.857 0-46.286-1.714-201.714 70.857-201.714 12 0 71.429 48.571 148.571 48.571 26.286 0 51.429-4.571 76-13.143-1.714 12.571-2.857 25.143-2.857 37.714 0 52 16.571 103.429 46.286 146.286zM950.857 876c0 92.571-61.143 148-152.571 148h-499.429c-91.429 0-152.571-55.429-152.571-148 0-129.143 30.286-327.429 197.714-327.429 19.429 0 90.286 79.429 204.571 79.429s185.143-79.429 204.571-79.429c167.429 0 197.714 198.286 197.714 327.429zM365.714 146.286c0 80.571-65.714 146.286-146.286 146.286s-146.286-65.714-146.286-146.286 65.714-146.286 146.286-146.286 146.286 65.714 146.286 146.286zM768 365.714c0 121.143-98.286 219.429-219.429 219.429s-219.429-98.286-219.429-219.429 98.286-219.429 219.429-219.429 219.429 98.286 219.429 219.429zM1097.143 494.286c0 63.429-53.714 90.857-110.857 90.857h-76.571c-38.286-45.714-92-71.429-151.429-73.143 29.714-42.857 46.286-94.286 46.286-146.286 0-12.571-1.143-25.143-2.857-37.714 24.571 8.571 49.714 13.143 76 13.143 77.143 0 136.571-48.571 148.571-48.571 72.571 0 70.857 155.429 70.857 201.714zM1024 146.286c0 80.571-65.714 146.286-146.286 146.286s-146.286-65.714-146.286-146.286 65.714-146.286 146.286-146.286 146.286 65.714 146.286 146.286z"></path>
</svg>
